<svg xmlns="http://www.w3.org/2000/svg" width="32" height="32" viewBox="0 0 32 32" fill="none" aria-hidden="true">
  <circle cx="16" cy="16" r="16" fill="#BDBDBD"/>
  <path fill="#111111" d="M22.7 13.55c-2.55-1.52-6.75-1.65-9.15-.88-.38.13-.78-.08-.91-.46-.13-.38.08-.78.46-.91 2.76-.89 7.4-.73 10.35 1.02.35.21.47.66.26 1.01-.21.35-.66.47-1.01.22zm-.2 2.4c-.18.3-.56.4-.86.22-2.12-1.3-5.35-1.68-7.86-.92-.34.1-.7-.1-.8-.44-.1-.34.1-.7.44-.8 2.87-.87 6.48-.45 8.95 1.05.3.18.4.56.22.86l-.09.03zm-1.02 2.3c-.15.25-.46.33-.71.18-1.85-1.13-4.2-1.38-6.95-.76-.28.07-.56-.1-.63-.37-.07-.28.1-.56.37-.63 3.05-.69 5.68-.4 7.75.87.25.15.33.46.18.71h-.01z"/>
</svg>
