<svg xmlns="http://www.w3.org/2000/svg" viewBox="0 0 40 40" fill="none" aria-hidden="true">
  <circle cx="20" cy="20" r="20" fill="#1ED760"/>
  <path fill="#000" d="M28.4 17.7c-3.5-2.1-9.3-2.3-12.6-1.2-.5.2-1.1-.1-1.3-.6-.2-.5.1-1.1.6-1.3 3.8-1.2 10.2-.9 14.2 1.4.5.3.6.9.3 1.4-.3.4-.9.6-1.2.3zm-.3 3.2c-.3.4-.8.6-1.2.3-2.9-1.8-7.4-2.3-10.9-1.3-.5.1-1-.2-1.1-.6-.1-.5.2-1 .6-1.1 3.9-1.2 8.9-.6 12.3 1.4.4.3.6.8.3 1.3zm-1.4 3.1c-.2.3-.6.5-1 .2-2.6-1.6-5.8-1.9-9.6-1.1-.4.1-.7-.2-.8-.5-.1-.4.2-.7.5-.8 4.2-1 7.8-.5 10.7 1.2.4.2.5.6.2 1z"/>
</svg>
