<svg xmlns="http://www.w3.org/2000/svg" viewBox="0 0 40 40" fill="none" aria-hidden="true">
  <circle cx="20" cy="20" r="20" fill="#8B8B8B"/>
  <path fill="#111" d="M28.1 16.9c-3.2-1.9-8.5-2.1-11.5-1.1-.5.2-1-.1-1.2-.5-.2-.5.1-1 .5-1.2 3.5-1.1 9.4-.9 13.1 1.3.4.3.6.8.3 1.2-.3.4-.8.5-1.2.3zm-.2 3c-.2.4-.7.5-1.1.3-2.7-1.6-6.8-2.1-10-1.2-.4.1-.9-.1-1-.6-.1-.4.2-.9.6-1 3.6-1.1 8.2-.6 11.3 1.3.4.2.5.7.2 1.2zm-1.3 2.9c-.2.3-.6.4-.9.2-2.3-1.4-5.3-1.8-8.8-1-.3.1-.7-.1-.8-.5-.1-.3.1-.7.5-.8 3.8-.9 7.2-.5 9.8 1.1.4.2.5.6.2.999z"/>
</svg>
